<?xml version="1.0" standalone="no"?>
<svg xmlns:xlink="http://www.w3.org/1999/xlink" id="wave" style="transform:rotate(0deg); transition: 0.3s" viewBox="0 0 1440 490" version="1.1" xmlns="http://www.w3.org/2000/svg"><defs><linearGradient id="sw-gradient-0" x1="0" x2="0" y1="1" y2="0"><stop stop-color="rgba(253, 103, 151, 1)" offset="0%"/><stop stop-color="rgba(255, 232, 101, 1)" offset="100%"/></linearGradient></defs><path style="transform:translate(0, 0px); opacity:1" fill="url(#sw-gradient-0)" d="M0,147L80,122.5C160,98,320,49,480,73.5C640,98,800,196,960,196C1120,196,1280,98,1440,114.3C1600,131,1760,261,1920,326.7C2080,392,2240,392,2400,400.2C2560,408,2720,425,2880,400.2C3040,376,3200,310,3360,261.3C3520,212,3680,180,3840,196C4000,212,4160,278,4320,302.2C4480,327,4640,310,4800,310.3C4960,310,5120,327,5280,318.5C5440,310,5600,278,5760,269.5C5920,261,6080,278,6240,277.7C6400,278,6560,261,6720,277.7C6880,294,7040,343,7200,351.2C7360,359,7520,327,7680,302.2C7840,278,8000,261,8160,253.2C8320,245,8480,245,8640,204.2C8800,163,8960,82,9120,114.3C9280,147,9440,294,9600,302.2C9760,310,9920,180,10080,114.3C10240,49,10400,49,10560,114.3C10720,180,10880,310,11040,359.3C11200,408,11360,376,11440,359.3L11520,343L11520,490L11440,490C11360,490,11200,490,11040,490C10880,490,10720,490,10560,490C10400,490,10240,490,10080,490C9920,490,9760,490,9600,490C9440,490,9280,490,9120,490C8960,490,8800,490,8640,490C8480,490,8320,490,8160,490C8000,490,7840,490,7680,490C7520,490,7360,490,7200,490C7040,490,6880,490,6720,490C6560,490,6400,490,6240,490C6080,490,5920,490,5760,490C5600,490,5440,490,5280,490C5120,490,4960,490,4800,490C4640,490,4480,490,4320,490C4160,490,4000,490,3840,490C3680,490,3520,490,3360,490C3200,490,3040,490,2880,490C2720,490,2560,490,2400,490C2240,490,2080,490,1920,490C1760,490,1600,490,1440,490C1280,490,1120,490,960,490C800,490,640,490,480,490C320,490,160,490,80,490L0,490Z"/></svg>