<?xml version="1.0" standalone="no"?>
<svg xmlns:xlink="http://www.w3.org/1999/xlink" id="wave" style="transform:rotate(180deg); transition: 0.3s" viewBox="0 0 1440 310" version="1.1" xmlns="http://www.w3.org/2000/svg"><defs><linearGradient id="sw-gradient-0" x1="0" x2="0" y1="1" y2="0"><stop stop-color="rgba(253, 103, 151, 1)" offset="0%"/><stop stop-color="rgba(255, 232, 101, 1)" offset="100%"/></linearGradient></defs><path style="transform:translate(0, 0px); opacity:1" fill="url(#sw-gradient-0)" d="M0,93L80,77.5C160,62,320,31,480,46.5C640,62,800,124,960,124C1120,124,1280,62,1440,72.3C1600,83,1760,165,1920,206.7C2080,248,2240,248,2400,253.2C2560,258,2720,269,2880,253.2C3040,238,3200,196,3360,165.3C3520,134,3680,114,3840,124C4000,134,4160,176,4320,191.2C4480,207,4640,196,4800,196.3C4960,196,5120,207,5280,201.5C5440,196,5600,176,5760,170.5C5920,165,6080,176,6240,175.7C6400,176,6560,165,6720,175.7C6880,186,7040,217,7200,222.2C7360,227,7520,207,7680,191.2C7840,176,8000,165,8160,160.2C8320,155,8480,155,8640,129.2C8800,103,8960,52,9120,72.3C9280,93,9440,186,9600,191.2C9760,196,9920,114,10080,72.3C10240,31,10400,31,10560,72.3C10720,114,10880,196,11040,227.3C11200,258,11360,238,11440,227.3L11520,217L11520,310L11440,310C11360,310,11200,310,11040,310C10880,310,10720,310,10560,310C10400,310,10240,310,10080,310C9920,310,9760,310,9600,310C9440,310,9280,310,9120,310C8960,310,8800,310,8640,310C8480,310,8320,310,8160,310C8000,310,7840,310,7680,310C7520,310,7360,310,7200,310C7040,310,6880,310,6720,310C6560,310,6400,310,6240,310C6080,310,5920,310,5760,310C5600,310,5440,310,5280,310C5120,310,4960,310,4800,310C4640,310,4480,310,4320,310C4160,310,4000,310,3840,310C3680,310,3520,310,3360,310C3200,310,3040,310,2880,310C2720,310,2560,310,2400,310C2240,310,2080,310,1920,310C1760,310,1600,310,1440,310C1280,310,1120,310,960,310C800,310,640,310,480,310C320,310,160,310,80,310L0,310Z"/></svg>